<svg width="1060" height="839" viewBox="0 0 1060 839" fill="none" xmlns="http://www.w3.org/2000/svg">
<path d="M1060 0C1000.51 5.64791 948.733 24.0867 901.416 60.1574C832.767 112.507 791.406 176.604 713.954 214.763C621.528 260.279 495.88 227.673 421.085 298.556C385.752 332.04 370.921 381.946 365.202 430.286C359.507 478.649 361.429 527.843 352.673 575.731C348.758 597.113 342.588 618.47 330.89 636.79C318.645 655.965 300.824 671.034 281.746 683.421C255.762 700.318 226.907 712.776 196.795 720.133C152.516 730.954 105.246 730.93 63.6488 749.559C28.2208 765.435 -2.20036 802.312 0.125128 839H1059.98V0H1060Z" fill="url(#paint0_linear_448_13901)"/>
<defs>
<linearGradient id="paint0_linear_448_13901" x1="533.5" y1="0" x2="533.5" y2="839" gradientUnits="userSpaceOnUse">
<stop stop-color="#0440A6"/>
<stop offset="1" stop-color="#063184"/>
</linearGradient>
</defs>
</svg>
